<?xml version="1.0" encoding="UTF-8" standalone="no"?><!DOCTYPE svg PUBLIC "-//W3C//DTD SVG 1.1//EN" "http://www.w3.org/Graphics/SVG/1.1/DTD/svg11.dtd"><svg width="100%" height="100%" viewBox="0 0 222 274" version="1.1" xmlns="http://www.w3.org/2000/svg" xmlns:xlink="http://www.w3.org/1999/xlink" xml:space="preserve" xmlns:serif="http://www.serif.com/" style="fill-rule:evenodd;clip-rule:evenodd;stroke-linecap:round;stroke-linejoin:round;stroke-miterlimit:1.5;"><rect id="Artboard3" x="0" y="0" width="221.993" height="273.398" style="fill:none;"/><g id="Spacecat"><path d="M118.369,124.03c0.05,0.933 0.779,1.687 1.71,1.768c2.658,0.125 5.851,-0.178 8.573,-0.654c2.908,-0.523 5.654,-1.719 8.018,-3.493c6.345,-4.75 21.297,-15.971 21.297,-15.971c1.114,-0.758 2.562,-0.819 3.736,-0.159c1.175,0.661 1.874,1.93 1.806,3.275l-2.137,42.093c3.527,7.367 10.54,28.505 6.348,36.138c-20.674,37.637 -28.204,43.161 -57.298,44.641c-27.075,1.378 -42.742,-6.764 -59.561,-44.63c-3.458,-7.785 4.999,-28.421 8.385,-35.67l-2.083,-41.021c-0.069,-1.346 0.631,-2.615 1.805,-3.275c1.175,-0.661 2.622,-0.6 3.737,0.158c0,0 19.113,12.989 23.497,15.968c0.593,0.403 1.231,0.736 1.9,0.992c3.147,1.218 6.488,2.516 9.822,1.749l7.491,-7.792c-1.426,1.799 -0.733,4.851 0.31,5.318c0.156,0.045 0.323,0.022 0.461,-0.064c0.867,-0.484 5.921,-3.65 5.921,-3.65c-4.664,5.407 3.972,3.361 6.097,1.248c0,0 0.092,1.691 0.165,3.031Z"/><path d="M63.754,128.369c-0.137,-1.609 0.83,-3.108 2.353,-3.647c1.523,-0.539 3.217,0.018 4.124,1.354c1.921,2.834 3.45,5.088 3.45,5.088c-6.487,5.393 -4.397,4.079 -8.862,9.769c0,0 -0.526,-6.205 -1.065,-12.564Z" style="fill:#fffdfd;"/><path d="M156.569,126.889c0.059,-1.556 -0.903,-2.97 -2.373,-3.485c-1.47,-0.516 -3.104,-0.013 -4.03,1.239c-2.803,3.791 -5.403,7.306 -5.403,7.306c6.64,4.604 6.233,4.754 11.201,10.886c0,0 0.32,-8.431 0.605,-15.946Z" style="fill:#fffdfd;"/><path d="M143.919,163.87c-5.497,-10.535 -19.245,-8.563 -23.387,1.608c4.748,9.753 20.71,7.05 23.387,-1.608Z" style="fill:#f9fff7;"/><path d="M96.103,165.762c-3.874,-11.234 -17.763,-11.322 -23.368,-1.878c3.251,10.35 19.436,10.044 23.368,1.878Z" style="fill:#f9fff7;"/><path d="M109.347,190.443c-0.137,0.237 -0.39,0.381 -0.663,0.377c-0.273,-0.003 -0.523,-0.154 -0.654,-0.394c-1.003,-1.84 -2.948,-5.408 -4.147,-7.608c-0.155,-0.286 -0.12,-0.638 0.089,-0.887c0.209,-0.249 0.55,-0.345 0.858,-0.242c2.7,0.89 5.447,1.047 8.264,0.091c0.243,-0.086 0.514,-0.011 0.679,0.188c0.165,0.198 0.188,0.479 0.059,0.702c-1.226,2.141 -3.391,5.883 -4.485,7.773Z" style="fill:#f8f8f8;"/><path d="M124.744,204.727c-0.03,3.189 -1.846,17.576 -15.24,17.518c-15.47,-0.066 -16.454,-14.842 -15.686,-17.362c1.743,-5.715 30.973,-5 30.926,-0.156Z" style="fill:#fff;"/><path d="M100.692,216.843c-0.497,4.185 13.089,6.777 17.048,0.371c0.194,-0.329 0.199,-0.736 0.013,-1.07c-4.89,-8.712 -14.069,-7.853 -17.061,0.699Z"/><path d="M9.789,133.582c8.1,-50.499 50.28,-89.033 101.03,-89.033c50.756,0 92.939,38.542 101.032,89.048l7.971,3.418l0,41.695l-3.758,2.213l-8.121,4.309c-13.631,42.264 -51.988,72.745 -97.124,72.745c-45.216,0 -83.628,-30.588 -97.198,-72.973l-11.839,-6.294l0,-41.695l8.007,-3.433Zm99.744,-51.962c50.31,0 91.154,36.615 91.154,81.715c0,45.1 -40.844,81.716 -91.154,81.716c-50.309,0 -91.153,-36.616 -91.153,-81.716c0,-45.1 40.844,-81.715 91.153,-81.715Z" style="fill:#090000;stroke:#000;stroke-width:2.29px;"/><path d="M57.537,184.607l0.846,3.093l-23.717,-0.208l22.871,-2.885Z" style="fill:#090000;"/><path d="M58.317,190.696l1.266,2.957l-23.755,3.17l22.489,-6.127Z" style="fill:#090000;"/><path d="M163.319,182.031l-0.847,3.093l25.274,-3.762l-24.427,0.669Z" style="fill:#090000;"/><path d="M162.814,187.014l-1.266,2.958l23.081,2.348l-21.815,-5.306Z" style="fill:#090000;"/><path d="M66.872,213.199l-15.281,27.222c26.889,10.301 87.627,10.503 113.294,-0.005l-14.046,-26.364c-23.558,22.588 -65.073,20.458 -83.967,-0.853Z" style="fill:#000100;"/><rect x="93.252" y="8.311" width="4.362" height="40.316"/><rect x="166.651" y="41.924" width="4.362" height="40.316"/><circle cx="95.344" cy="8.386" r="7.358"/><circle cx="169.364" cy="44.493" r="7.358"/><path d="M41.02,231.091c0,0 0.328,7.942 0.516,12.495c0.081,1.973 1.1,3.788 2.741,4.884c39.579,26.331 75.996,30.351 118.885,8.216c4.153,-2.144 8.368,-4.533 12.652,-7.171c1.933,-1.194 3.144,-3.273 3.227,-5.545c0.169,-4.572 0.437,-11.873 0.437,-11.873c-48.163,33.396 -91.131,32.579 -138.458,-1.006Z"/></g></svg>